<svg xmlns="http://www.w3.org/2000/svg">
  <symbol id="logo" viewBox="0 0 41 41" fill="none">
      <rect x="0.924805" y="0.587402" width="40" height="40" rx="10" fill="#4B4BEE"/>
      <path d="M6.46726 12.1999L9.34666 15.5623L8.32127 17.3383L4.19665 11.87L5.06091 10.3731L11.8589 11.211L10.8335 12.987L6.46726 12.1999ZM11.0543 15.4318C11.6719 14.3619 12.4028 13.6478 13.2468 13.2894C14.0951 12.9334 14.9358 12.9959 15.7688 13.4768C16.4369 13.8626 16.8447 14.4307 16.9922 15.1811L19.0137 11.6798L20.8531 12.7418L15.2281 22.4846L13.5726 21.5288L13.905 20.7481C13.1187 21.0553 12.3661 21.0014 11.6472 20.5863C10.8396 20.12 10.3736 19.4281 10.2493 18.5106C10.1316 17.5913 10.4 16.565 11.0543 15.4318ZM12.8105 16.6233C12.4394 17.2661 12.267 17.8234 12.2934 18.2953C12.3197 18.7672 12.5465 19.1265 12.9736 19.3731C13.5402 19.7002 14.0777 19.692 14.5862 19.3485L16.1499 16.64C16.1974 16.0303 15.94 15.5631 15.3776 15.2384C14.4938 14.7282 13.6381 15.1898 12.8105 16.6233ZM16.7684 24.431L15.4047 23.6437L24.5943 15.5784L25.958 16.3657L16.7684 24.431ZM29.6303 26.3089C29.0199 27.366 28.2894 28.0747 27.4387 28.4349C26.5946 28.7933 25.7646 28.737 24.9484 28.2658C24.2549 27.8654 23.8338 27.3009 23.685 26.5722L21.8173 29.8071L19.9842 28.7488L25.4701 19.247L27.17 20.2285L26.8452 20.9374C27.5969 20.661 28.33 20.729 29.0446 21.1416C29.8904 21.6299 30.3672 22.3225 30.4753 23.2193C30.5833 24.1162 30.32 25.1143 29.6852 26.2137L29.6303 26.3089ZM27.8741 25.1173C28.2427 24.4788 28.413 23.9203 28.3848 23.4417C28.3609 22.9655 28.1333 22.6029 27.702 22.3539C27.1269 22.0219 26.6045 22.0135 26.135 22.3288L24.5127 25.1387C24.4755 25.7206 24.7445 26.1775 25.3196 26.5095C26.195 27.0149 27.0464 26.5508 27.8741 25.1173ZM34.844 28.5578L31.9021 25.1425L32.9202 23.3792L37.1082 28.8841L36.2476 30.3747L29.3826 29.5065L30.4043 27.7368L34.844 28.5578Z" fill="white"/>
  </symbol>
  <symbol id="like" viewBox="0 0 23 23" fill="inherit">
    <path d="M9.61509 2.56013C9.50269 5.63343 9.1191 7.45459 7.28095 10.1988C7.05127 9.8193 6.64915 9.56221 6.19063 9.56221H2.05543C1.34847 9.56221 0.763184 10.1692 0.763184 10.9023V20.5511C0.763184 21.2843 1.34847 21.8912 2.05543 21.8912H6.19063C6.63638 21.8912 7.03201 21.6503 7.2648 21.2882C7.53361 21.5128 7.78235 21.7145 8.04015 21.8745C8.46633 22.1389 8.94801 22.2979 9.607 22.3687C10.9249 22.5102 13.0877 22.4056 18.0793 22.4273C18.1966 22.4246 18.3126 22.3799 18.4024 22.3017C19.4069 21.4519 19.8432 20.638 20.0419 19.7219C20.1397 19.6907 20.2281 19.6286 20.2923 19.5461C21.0435 18.5724 21.3153 17.449 21.1403 16.4805C21.2123 16.446 21.2764 16.3939 21.3261 16.3298C22.2036 15.2623 22.3808 13.8953 22.0691 12.8622C22.6052 12.2047 22.8268 11.4334 22.7476 10.7181C22.6213 9.81254 21.9871 8.90253 21.1807 8.75815H14.5256C14.9235 6.04351 14.6597 3.54862 13.7745 1.93197C13.2966 1.05921 12.5996 0.570819 11.9088 0.46621C10.6968 0.300036 9.71886 1.08864 9.61509 2.56013ZM11.5453 1.52155C12.0458 1.46738 12.6037 1.87067 12.8779 2.45962C13.6339 3.84012 13.9476 6.42212 13.4352 9.19368C13.3784 9.50284 13.6406 9.8309 13.944 9.83023H21.0353C21.4233 10.0367 21.6727 10.3921 21.7218 10.8353C21.7693 11.2646 21.6009 11.7694 21.1806 12.2424H17.5543C17.2812 12.2424 17.0293 12.4953 17.0293 12.7785C17.0293 13.0617 17.2812 13.3186 17.5543 13.3145H21.116C21.2712 13.9066 21.1519 14.6946 20.6395 15.4587H17.5543C17.2812 15.4587 17.0293 15.7115 17.0293 15.9947C17.0293 16.278 17.2812 16.5348 17.5543 16.5308H20.0822C20.2374 17.1228 20.1181 17.9108 19.6057 18.675H17.5543C17.2812 18.675 17.0293 18.9278 17.0293 19.211C17.0293 19.4943 17.2812 19.7511 17.5543 19.7471H18.9838C18.8245 20.3205 18.533 20.7604 17.8612 21.3552C13.0572 21.338 10.8296 21.4166 9.71193 21.2966C9.14205 21.2354 8.87445 21.1485 8.57315 20.9615C8.3016 20.7931 7.96915 20.4959 7.4828 20.0905V11.7315C9.88455 8.56372 10.53 5.90033 10.6488 2.60203C10.8001 1.88349 11.156 1.56371 11.5453 1.52155ZM2.05536 10.6343H6.19055C6.34268 10.6343 6.449 10.7446 6.449 10.9023V20.5511C6.449 20.7089 6.34268 20.8192 6.19055 20.8192H2.05536C1.90323 20.8192 1.79691 20.7089 1.79691 20.5511V10.9023C1.79691 10.7446 1.90323 10.6343 2.05536 10.6343ZM4.12295 17.3265C3.69473 17.3265 3.3476 17.6865 3.3476 18.1306C3.3476 18.5746 3.69473 18.9346 4.12295 18.9346C4.55115 18.9346 4.8983 18.5746 4.8983 18.1306C4.8983 17.6865 4.55115 17.3265 4.12295 17.3265Z" fill="inherit"/>
  </symbol>
  <symbol id="comments" viewBox="0 0 22 23" fill="none">
    <path d="M1.95556 0.466797C1.4676 0.466797 1.00082 0.615714 0.626389 0.964507C0.251954 1.3133 -7.33333e-08 1.89301 0 2.49382V16.1039C7.33334e-08 16.7052 0.242477 17.2746 0.61875 17.6332C0.955281 17.9486 1.37392 18.1309 1.95556 18.1309H2.93333V21.6058C2.9348 21.9264 3.09948 22.2383 3.34216 22.3802C3.58484 22.5221 3.89405 22.4872 4.10972 22.2935L8.79236 18.1309H20.0444C20.5324 18.1309 20.9992 17.9729 21.3736 17.6241C21.748 17.2753 22 16.7047 22 16.1039V2.49382C22 1.89301 21.7481 1.31335 21.3736 0.964507C20.9992 0.615665 20.5325 0.466664 20.0444 0.466797C14.0352 0.466832 7.96482 0.466797 1.95556 0.466797ZM1.95556 2.20424C7.96481 2.20424 14.0352 2.20427 20.0444 2.20424C20.2674 2.20418 20.4133 2.27604 20.4722 2.33094C20.5311 2.38583 20.5333 2.39277 20.5333 2.49382V16.1039C20.5333 16.2049 20.5312 16.2028 20.4722 16.2577C20.4133 16.3126 20.2675 16.3934 20.0444 16.3934H8.55556C8.39741 16.3934 8.23935 16.4535 8.1125 16.5654L4.4 19.8683V17.2622C4.39996 16.8073 4.05063 16.3935 3.66667 16.3934C3.08727 16.3934 2.50205 16.3934 1.925 16.3934C1.72152 16.4044 1.59278 16.3305 1.53542 16.2758C1.47805 16.2211 1.46667 16.2044 1.46667 16.1039V2.49382C1.46667 2.39277 1.46884 2.38583 1.52778 2.33094C1.58671 2.27604 1.73255 2.20424 1.95556 2.20424Z" fill="black"/>
  </symbol>
  <symbol id="views" viewBox="0 0 34 23" fill="none">
    <path d="M16.9039 17.5581C20.2806 17.5581 23.0178 14.8208 23.0178 11.4442C23.0178 8.06761 20.2806 5.33032 16.9039 5.33032C13.5273 5.33032 10.79 8.06761 10.79 11.4442C10.79 14.8208 13.5273 17.5581 16.9039 17.5581Z" fill="black"/>
    <path d="M16.9044 22.4443C7.817 22.4443 0.0332031 13.5329 0.0332031 11.4441C0.0332031 9.35532 7.817 0.444336 16.9044 0.444336C26.1845 0.444336 33.7755 8.74928 33.7755 11.4441C33.7755 14.1389 26.1845 22.4443 16.9044 22.4443ZM16.9044 1.85156C8.36347 1.85156 1.57833 10.2625 1.43948 11.4586C1.57833 12.6262 8.36394 21.0371 16.9044 21.0371C25.7703 21.0371 32.3683 12.985 32.3683 11.4441C32.3683 9.9032 25.7703 1.85156 16.9044 1.85156Z" fill="black"/>
  </symbol>
  <symbol id="google" viewBox="0 0 34 32" fill="none">
    <g clip-path="url(#clip0)">
      <path d="M8.0635 19.3379L6.91481 23.4962L2.7164 23.5823C1.46169 21.3256 0.75 18.7437 0.75 15.9999C0.75 13.3467 1.41541 10.8447 2.59491 8.64166H2.59581L6.33357 9.30616L7.97094 12.9089C7.62824 13.8777 7.44146 14.9177 7.44146 15.9999C7.44159 17.1744 7.66099 18.2997 8.0635 19.3379Z" fill="#FBBB00"/>
      <path d="M33.4613 13.011C33.6508 13.9789 33.7496 14.9784 33.7496 16C33.7496 17.1455 33.6254 18.2629 33.3887 19.3407C32.5855 23.0084 30.4867 26.211 27.5793 28.4774L27.5784 28.4765L22.8705 28.2435L22.2042 24.2101C24.1334 23.113 25.6411 21.396 26.4353 19.3407H17.6123V13.011H26.564H33.4613Z" fill="#518EF8"/>
      <path d="M27.5792 28.4765L27.5801 28.4774C24.7525 30.6813 21.1605 32 17.2504 32C10.9668 32 5.50369 28.5943 2.7168 23.5825L8.06389 19.3381C9.45731 22.9442 13.0447 25.5113 17.2504 25.5113C19.0581 25.5113 20.7517 25.0374 22.2049 24.2101L27.5792 28.4765Z" fill="#28B446"/>
      <path d="M27.7817 3.6835L22.4364 7.927C20.9324 7.01538 19.1545 6.48875 17.2498 6.48875C12.9489 6.48875 9.29444 9.17356 7.97083 12.909L2.59563 8.64175H2.59473C5.34082 3.50769 10.8728 0 17.2498 0C21.2533 0 24.9241 1.38287 27.7817 3.6835Z" fill="#F14336"/>
    </g>
    <defs>
    <clipPath id="clip0">
      <rect x="0.75" width="33" height="32" fill="white"/>
    </clipPath>
    </defs>
  </symbol>
  <symbol id="fb" viewBox="0 0 31 32" fill="none">
    <g clip-path="url(#clip0)">
      <path d="M26.4581 0.5H4.54354C2.31094 0.5 0.500977 2.37022 0.500977 4.67731V27.3225C0.500977 29.6296 2.31086 31.4999 4.54354 31.4999H15.3517L15.3701 20.4222H12.585C12.223 20.4222 11.9293 20.1198 11.9279 19.7457L11.9145 16.1749C11.9131 15.7989 12.2078 15.4933 12.5717 15.4933H15.3518V12.043C15.3518 8.03895 17.7183 5.85873 21.1749 5.85873H24.0114C24.3743 5.85873 24.6686 6.16275 24.6686 6.53782V9.54873C24.6686 9.92365 24.3745 10.2276 24.0117 10.2278L22.2711 10.2287C20.3912 10.2287 20.0272 11.1517 20.0272 12.5063V15.4934H24.1579C24.5514 15.4934 24.8568 15.8485 24.8104 16.2524L24.4008 19.8232C24.3617 20.1649 24.0812 20.4223 23.7483 20.4223H20.0457L20.0272 31.5H26.4583C28.6909 31.5 30.5008 29.6298 30.5008 27.3228V4.67731C30.5007 2.37022 28.6908 0.5 26.4581 0.5Z" fill="#475993"/>
    </g>
    <defs>
    <clipPath id="clip0">
      <rect x="0.5" y="0.5" width="30" height="31" fill="white"/>
    </clipPath>
    </defs>
  </symbol>
  <symbol id="vk" viewBox="0 0 33 31" fill="none">
    <g clip-path="url(#clip0)">
      <path d="M27.7906 17.8831C28.8521 18.8871 29.9724 19.8316 30.9244 20.9369C31.345 21.428 31.7431 21.9348 32.0477 22.5048C32.4794 23.315 32.0884 24.2066 31.3385 24.255L26.6766 24.253C25.4742 24.3496 24.5151 23.8807 23.7086 23.0843C23.0631 22.4474 22.4654 21.7696 21.8447 21.1112C21.5903 20.8421 21.324 20.5889 21.0059 20.3887C20.3695 19.9886 19.8171 20.1111 19.4534 20.7541C19.083 21.4081 18.9989 22.1322 18.9626 22.8611C18.9126 23.9246 18.5808 24.2042 17.4781 24.2528C15.1216 24.3605 12.8851 24.0151 10.8074 22.8635C8.97561 21.8482 7.55524 20.4149 6.31886 18.7923C3.9118 15.6328 2.06836 12.1609 0.411613 8.59178C0.0386758 7.78766 0.311426 7.35602 1.2273 7.3407C2.74811 7.31206 4.26874 7.31412 5.79136 7.33865C6.40949 7.34742 6.81868 7.69085 7.05736 8.25654C7.88018 10.2165 8.88699 12.0812 10.1507 13.8097C10.4873 14.2698 10.8305 14.73 11.3191 15.0539C11.8597 15.4125 12.2714 15.2937 12.5257 14.7102C12.6871 14.3403 12.7577 13.9418 12.7941 13.5457C12.9146 12.1826 12.9305 10.8218 12.7192 9.46348C12.5894 8.61576 12.0966 8.06696 11.2234 7.90657C10.7778 7.82478 10.8441 7.66414 11.0599 7.41778C11.4346 6.99286 11.787 6.72833 12.4896 6.72833H17.7582C18.5876 6.8869 18.7718 7.24789 18.8854 8.05637L18.8899 13.7258C18.8808 14.0388 19.0512 14.9676 19.6332 15.1747C20.0989 15.3222 20.4059 14.9613 20.6854 14.6752C21.9469 13.3782 22.8472 11.8454 23.6515 10.2582C24.0084 9.56029 24.3154 8.83554 24.6128 8.11134C24.8332 7.57399 25.179 7.30958 25.8038 7.32127L30.8746 7.32563C31.0249 7.32563 31.1771 7.32775 31.3227 7.3519C32.1771 7.49298 32.4113 7.84906 32.1474 8.65736C31.7316 9.92551 30.9225 10.9824 30.1314 12.044C29.2858 13.1775 28.3814 14.2723 27.5428 15.4125C26.7723 16.4539 26.8335 16.9787 27.7906 17.8831Z" fill="#436EAB"/>
    </g>
    <defs>
    <clipPath id="clip0">
      <rect x="0.25" width="32" height="31" fill="white"/>
    </clipPath>
    </defs>
  </symbol>
  <symbol id="delete" viewBox="0 0 8 8">
    <path fill-rule="evenodd" clip-rule="evenodd" d="M1.25374 0.0125901C1.21211 0.0131979 1.17236 0.0300081 1.14292 0.0594476L0.415027 0.787336C0.385021 0.817345 0.368164 0.858047 0.368164 0.900485C0.368164 0.942923 0.385021 0.98362 0.415027 1.01363L2.93465 3.53226L0.415027 6.05188C0.38503 6.08188 0.368178 6.12257 0.368178 6.16501C0.368178 6.20744 0.38503 6.24814 0.415027 6.27815L1.14292 7.00603C1.17293 7.03603 1.21363 7.0529 1.25607 7.0529C1.2985 7.0529 1.3392 7.03603 1.36921 7.00603L3.88785 4.48642L6.40747 7.00603C6.43748 7.03603 6.47817 7.05288 6.5206 7.05288C6.56303 7.05288 6.60372 7.03603 6.63373 7.00603L7.36162 6.27815C7.39162 6.24814 7.40847 6.20744 7.40847 6.16501C7.40847 6.12257 7.39162 6.08188 7.36162 6.05188L4.84201 3.53226L7.36162 1.01363C7.39163 0.98362 7.40849 0.942923 7.40849 0.900485C7.40849 0.858047 7.39163 0.817345 7.36162 0.787336L6.63373 0.0594476C6.60372 0.0294506 6.56303 0.0125998 6.5206 0.0125998C6.47817 0.0125998 6.43748 0.0294506 6.40747 0.0594476L3.88785 2.57906L1.36921 0.0594476C1.35408 0.0443114 1.33606 0.0323623 1.31623 0.0243142C1.29639 0.0162661 1.27514 0.0122798 1.25374 0.0125901Z" fill="inherit" fill-opacity="0.7"/>
  </symbol>
  <symbol id="search" viewBox="0 0 32 32">
    <g fill="none" stroke="#ffffff" stroke-width="2" stroke-linecap="round" stroke-linejoin="round">
        <circle cx="14" cy="14" r="12" />
        <path d="M23 23 L30 30"  />
    </g>
  </symbol>
</svg>
